<svg xmlns="http://www.w3.org/2000/svg" xmlns:xlink="http://www.w3.org/1999/xlink" id="processonSvg1000" viewBox="31.399999999999977 220.0 889.6 330.5" width="889.6" height="330.5"><defs id="ProcessOnDefs1001"><marker id="ProcessOnMarker1043" markerUnits="userSpaceOnUse" orient="auto" markerWidth="14.118033988749895" markerHeight="9.174454630060925" viewBox="-0.5 -0.6881909602355868 14.118033988749895 9.174454630060925" refX="-0.5" refY="3.8990363547948754"><path id="ProcessOnPath1044" d="M12.0 3.8990363547948754L0.0 7.798072709589751V0.0Z" stroke="#000000" stroke-width="1.0" fill="#000000" transform="matrix(1.0,0.0,0.0,1.0,0.0,0.0)"/></marker><marker id="ProcessOnMarker1052" markerUnits="userSpaceOnUse" orient="auto" markerWidth="16.23606797749979" markerHeight="10.550836550532098" viewBox="-1.0 -1.3763819204711736 16.23606797749979 10.550836550532098" refX="-1.0" refY="3.8990363547948754"><path id="ProcessOnPath1053" d="M12.0 3.8990363547948754L0.0 7.798072709589751V0.0Z" stroke="#323232" stroke-width="2.0" fill="#323232" transform="matrix(1.0,0.0,0.0,1.0,0.0,0.0)"/></marker><marker id="ProcessOnMarker1064" markerUnits="userSpaceOnUse" orient="auto" markerWidth="16.23606797749979" markerHeight="10.550836550532098" viewBox="-1.0 -1.3763819204711736 16.23606797749979 10.550836550532098" refX="-1.0" refY="3.8990363547948754"><path id="ProcessOnPath1065" d="M12.0 3.8990363547948754L0.0 7.798072709589751V0.0Z" stroke="#323232" stroke-width="2.0" fill="#323232" transform="matrix(1.0,0.0,0.0,1.0,0.0,0.0)"/></marker><marker id="ProcessOnMarker1071" markerUnits="userSpaceOnUse" orient="auto" markerWidth="16.23606797749979" markerHeight="10.550836550532098" viewBox="-1.0 -1.3763819204711736 16.23606797749979 10.550836550532098" refX="-1.0" refY="3.8990363547948754"><path id="ProcessOnPath1072" d="M12.0 3.8990363547948754L0.0 7.798072709589751V0.0Z" stroke="#323232" stroke-width="2.0" fill="#323232" transform="matrix(1.0,0.0,0.0,1.0,0.0,0.0)"/></marker><marker id="ProcessOnMarker1083" markerUnits="userSpaceOnUse" orient="auto" markerWidth="16.23606797749979" markerHeight="10.550836550532098" viewBox="-1.0 -1.3763819204711736 16.23606797749979 10.550836550532098" refX="-1.0" refY="3.8990363547948754"><path id="ProcessOnPath1084" d="M12.0 3.8990363547948754L0.0 7.798072709589751V0.0Z" stroke="#323232" stroke-width="2.0" fill="#323232" transform="matrix(1.0,0.0,0.0,1.0,0.0,0.0)"/></marker><marker id="ProcessOnMarker1095" markerUnits="userSpaceOnUse" orient="auto" markerWidth="16.23606797749979" markerHeight="10.550836550532098" viewBox="-1.0 -1.3763819204711736 16.23606797749979 10.550836550532098" refX="-1.0" refY="3.8990363547948754"><path id="ProcessOnPath1096" d="M12.0 3.8990363547948754L0.0 7.798072709589751V0.0Z" stroke="#323232" stroke-width="2.0" fill="#323232" transform="matrix(1.0,0.0,0.0,1.0,0.0,0.0)"/></marker><marker id="ProcessOnMarker1102" markerUnits="userSpaceOnUse" orient="auto" markerWidth="16.23606797749979" markerHeight="10.550836550532098" viewBox="-1.0 -1.3763819204711736 16.23606797749979 10.550836550532098" refX="-1.0" refY="3.8990363547948754"><path id="ProcessOnPath1103" d="M12.0 3.8990363547948754L0.0 7.798072709589751V0.0Z" stroke="#323232" stroke-width="2.0" fill="#323232" transform="matrix(1.0,0.0,0.0,1.0,0.0,0.0)"/></marker><marker id="ProcessOnMarker1114" markerUnits="userSpaceOnUse" orient="auto" markerWidth="16.23606797749979" markerHeight="10.550836550532098" viewBox="-1.0 -1.3763819204711736 16.23606797749979 10.550836550532098" refX="-1.0" refY="3.8990363547948754"><path id="ProcessOnPath1115" d="M12.0 3.8990363547948754L0.0 7.798072709589751V0.0Z" stroke="#323232" stroke-width="2.0" fill="#323232" transform="matrix(1.0,0.0,0.0,1.0,0.0,0.0)"/></marker><marker id="ProcessOnMarker1122" markerUnits="userSpaceOnUse" orient="auto" markerWidth="16.23606797749979" markerHeight="10.550836550532098" viewBox="-1.0 -1.3763819204711736 16.23606797749979 10.550836550532098" refX="-1.0" refY="3.8990363547948754"><path id="ProcessOnPath1123" d="M12.0 3.8990363547948754L0.0 7.798072709589751V0.0Z" stroke="#323232" stroke-width="2.0" fill="#323232" transform="matrix(1.0,0.0,0.0,1.0,0.0,0.0)"/></marker><marker id="ProcessOnMarker1126" markerUnits="userSpaceOnUse" orient="auto" markerWidth="16.23606797749979" markerHeight="10.550836550532098" viewBox="-1.0 -1.3763819204711736 16.23606797749979 10.550836550532098" refX="-1.0" refY="3.8990363547948754"><path id="ProcessOnPath1127" d="M12.0 3.8990363547948754L0.0 7.798072709589751V0.0Z" stroke="#323232" stroke-width="2.0" fill="#323232" transform="matrix(1.0,0.0,0.0,1.0,0.0,0.0)"/></marker><marker id="ProcessOnMarker1134" markerUnits="userSpaceOnUse" orient="auto" markerWidth="16.23606797749979" markerHeight="10.550836550532098" viewBox="-1.0 -1.3763819204711736 16.23606797749979 10.550836550532098" refX="-1.0" refY="3.8990363547948754"><path id="ProcessOnPath1135" d="M12.0 3.8990363547948754L0.0 7.798072709589751V0.0Z" stroke="#323232" stroke-width="2.0" fill="#323232" transform="matrix(1.0,0.0,0.0,1.0,0.0,0.0)"/></marker><marker id="ProcessOnMarker1138" markerUnits="userSpaceOnUse" orient="auto" markerWidth="16.23606797749979" markerHeight="10.550836550532098" viewBox="-1.0 -1.3763819204711736 16.23606797749979 10.550836550532098" refX="-1.0" refY="3.8990363547948754"><path id="ProcessOnPath1139" d="M12.0 3.8990363547948754L0.0 7.798072709589751V0.0Z" stroke="#323232" stroke-width="2.0" fill="#323232" transform="matrix(1.0,0.0,0.0,1.0,0.0,0.0)"/></marker><marker id="ProcessOnMarker1147" markerUnits="userSpaceOnUse" orient="auto" markerWidth="16.23606797749979" markerHeight="10.550836550532098" viewBox="-1.0 -1.3763819204711736 16.23606797749979 10.550836550532098" refX="-1.0" refY="3.8990363547948754"><path id="ProcessOnPath1148" d="M12.0 3.8990363547948754L0.0 7.798072709589751V0.0Z" stroke="#323232" stroke-width="2.0" fill="#323232" transform="matrix(1.0,0.0,0.0,1.0,0.0,0.0)"/></marker><marker id="ProcessOnMarker1154" markerUnits="userSpaceOnUse" orient="auto" markerWidth="16.23606797749979" markerHeight="10.550836550532098" viewBox="-1.0 -1.3763819204711736 16.23606797749979 10.550836550532098" refX="-1.0" refY="3.8990363547948754"><path id="ProcessOnPath1155" d="M12.0 3.8990363547948754L0.0 7.798072709589751V0.0Z" stroke="#323232" stroke-width="2.0" fill="#323232" transform="matrix(1.0,0.0,0.0,1.0,0.0,0.0)"/></marker><marker id="ProcessOnMarker1162" markerUnits="userSpaceOnUse" orient="auto" markerWidth="16.23606797749979" markerHeight="10.550836550532098" viewBox="-1.0 -1.3763819204711736 16.23606797749979 10.550836550532098" refX="-1.0" refY="3.8990363547948754"><path id="ProcessOnPath1163" d="M12.0 3.8990363547948754L0.0 7.798072709589751V0.0Z" stroke="#323232" stroke-width="2.0" fill="#323232" transform="matrix(1.0,0.0,0.0,1.0,0.0,0.0)"/></marker><marker id="ProcessOnMarker1169" markerUnits="userSpaceOnUse" orient="auto" markerWidth="16.23606797749979" markerHeight="10.550836550532098" viewBox="-1.0 -1.3763819204711736 16.23606797749979 10.550836550532098" refX="-1.0" refY="3.8990363547948754"><path id="ProcessOnPath1170" d="M12.0 3.8990363547948754L0.0 7.798072709589751V0.0Z" stroke="#323232" stroke-width="2.0" fill="#323232" transform="matrix(1.0,0.0,0.0,1.0,0.0,0.0)"/></marker><marker id="ProcessOnMarker1181" markerUnits="userSpaceOnUse" orient="auto" markerWidth="16.23606797749979" markerHeight="10.550836550532098" viewBox="-1.0 -1.3763819204711736 16.23606797749979 10.550836550532098" refX="-1.0" refY="3.8990363547948754"><path id="ProcessOnPath1182" d="M12.0 3.8990363547948754L0.0 7.798072709589751V0.0Z" stroke="#323232" stroke-width="2.0" fill="#323232" transform="matrix(1.0,0.0,0.0,1.0,0.0,0.0)"/></marker></defs><g id="ProcessOnG1002"><path id="ProcessOnPath1003" d="M31.399999999999977 220.0H921.0V550.5H31.399999999999977V220.0Z" fill="#ffffff"/><g id="ProcessOnG1004"><g id="ProcessOnG1005" transform="matrix(1.0,0.0,0.0,1.0,51.39999999999998,240.0)" opacity="1.0"><path id="ProcessOnPath1006" d="M0.0 0.0L849.6 0.0L849.6 270.0L0.0 270.0Z" stroke="#323232" stroke-width="2.0" stroke-dasharray="none" opacity="1.0" fill="none"/><path id="ProcessOnPath1007" d="M0.0 0.0L40.0 0.0L40.0 270.0L0.0 270.0Z" stroke="#323232" stroke-width="2.0" stroke-dasharray="none" opacity="1.0" fill="#ffffff"/><g id="ProcessOnG1008" transform="matrix(0.0,-1.0,1.0,0.0,9.375,258.0)"><text id="ProcessOnText1009" fill="#666666" font-size="17" x="0.0" y="17.425" font-family="Arial" font-weight="bold" font-style="italic" text-decoration="none" family="Arial" text-anchor="start" size="17">信贷业务流程</text></g></g><g id="ProcessOnG1010" transform="matrix(1.0,0.0,0.0,1.0,91.39999999999998,240.0)" opacity="1.0"><path id="ProcessOnPath1011" d="M0.0 0.0L809.6 0.0L809.6 90.0L0.0 90.0Z" stroke="#323232" stroke-width="2.0" stroke-dasharray="none" opacity="1.0" fill="none"/><path id="ProcessOnPath1012" d="M0.0 0.0L30.0 0.0L30.0 90.0L0.0 90.0Z" stroke="#323232" stroke-width="2.0" stroke-dasharray="none" opacity="1.0" fill="#ffffff"/><g id="ProcessOnG1013" transform="matrix(0.0,-1.0,1.0,0.0,6.875,78.0)"><text id="ProcessOnText1014" fill="#666666" font-size="13" x="34.0" y="13.325" font-family="Arial" font-weight="bold" font-style="italic" text-decoration="none" family="Arial" text-anchor="middle" size="13">申请人</text></g></g><g id="ProcessOnG1015" transform="matrix(1.0,0.0,0.0,1.0,158.0,348.0)" opacity="1.0"><path id="ProcessOnPath1016" d="M0.0 22.5L32.5 0.0L65.0 22.5L32.5 45.0L0.0 22.5Z" stroke="#666666" stroke-width="2.0" stroke-dasharray="none" opacity="1.0" fill="#ffc000"/><g id="ProcessOnG1017" transform="matrix(1.0,0.0,0.0,1.0,10.0,7.5)"><text id="ProcessOnText1018" fill="#000000" font-size="12" x="21.5" y="12.3" font-family="Arial" font-weight="normal" font-style="normal" text-decoration="none" family="Arial" text-anchor="middle" size="12">信息核查</text><text id="ProcessOnText1019" fill="#000000" font-size="12" x="21.5" y="27.3" font-family="Arial" font-weight="normal" font-style="normal" text-decoration="none" family="Arial" text-anchor="middle" size="12">前置策略</text></g></g><g id="ProcessOnG1020" transform="matrix(1.0,0.0,0.0,1.0,158.0,256.0)" opacity="1.0"><path id="ProcessOnPath1021" d="M0.0 0.0L65.0 0.0L65.0 45.0L0.0 45.0Z" stroke="#666666" stroke-width="2.0" stroke-dasharray="none" opacity="1.0" fill="#ffffff"/><g id="ProcessOnG1022" transform="matrix(1.0,0.0,0.0,1.0,10.0,7.5)"><text id="ProcessOnText1023" fill="#000000" font-size="12" x="21.5" y="12.3" font-family="Arial" font-weight="normal" font-style="normal" text-decoration="none" family="Arial" text-anchor="middle" size="12">申请人填</text><text id="ProcessOnText1024" fill="#000000" font-size="12" x="21.5" y="27.3" font-family="Arial" font-weight="normal" font-style="normal" text-decoration="none" family="Arial" text-anchor="middle" size="12">写申请表</text></g></g><g id="ProcessOnG1025" transform="matrix(1.0,0.0,0.0,1.0,276.9,255.0)" opacity="1.0"><path id="ProcessOnPath1026" d="M0.0 23.5C0.0 -7.833333333333333 47.10000000000002 -7.833333333333333 47.10000000000002 23.5C47.10000000000002 54.833333333333336 0.0 54.833333333333336 0.0 23.5Z" stroke="#666666" stroke-width="2.0" stroke-dasharray="none" opacity="1.0" fill="#ff6666"/><g id="ProcessOnG1027" transform="matrix(1.0,0.0,0.0,1.0,10.0,8.5)"><text id="ProcessOnText1028" fill="#000000" font-size="12" x="12.550000000000011" y="12.3" font-family="Arial" font-weight="normal" font-style="normal" text-decoration="none" family="Arial" text-anchor="middle" size="12">申请</text><text id="ProcessOnText1029" fill="#000000" font-size="12" x="12.550000000000011" y="27.3" font-family="Arial" font-weight="normal" font-style="normal" text-decoration="none" family="Arial" text-anchor="middle" size="12">被拒</text></g></g><g id="ProcessOnG1030" transform="matrix(1.0,0.0,0.0,1.0,91.39999999999998,330.0)" opacity="1.0"><path id="ProcessOnPath1031" d="M0.0 0.0L809.6 0.0L809.6 90.0L0.0 90.0Z" stroke="#323232" stroke-width="2.0" stroke-dasharray="none" opacity="1.0" fill="none"/><path id="ProcessOnPath1032" d="M0.0 0.0L30.0 0.0L30.0 90.0L0.0 90.0Z" stroke="#323232" stroke-width="2.0" stroke-dasharray="none" opacity="1.0" fill="#ffffff"/><g id="ProcessOnG1033" transform="matrix(0.0,-1.0,1.0,0.0,6.875,78.0)"><text id="ProcessOnText1034" fill="#666666" font-size="13" x="34.0" y="13.325" font-family="Arial" font-weight="bold" font-style="italic" text-decoration="none" family="Arial" text-anchor="middle" size="13">金融机构</text></g></g><g id="ProcessOnG1035" transform="matrix(1.0,0.0,0.0,1.0,91.39999999999998,420.0)" opacity="1.0"><path id="ProcessOnPath1036" d="M0.0 0.0L809.6 0.0L809.6 90.0L0.0 90.0Z" stroke="#323232" stroke-width="2.0" stroke-dasharray="none" opacity="1.0" fill="none"/><path id="ProcessOnPath1037" d="M0.0 0.0L30.0 0.0L30.0 90.0L0.0 90.0Z" stroke="#323232" stroke-width="2.0" stroke-dasharray="none" opacity="1.0" fill="#ffffff"/><g id="ProcessOnG1038" transform="matrix(0.0,-1.0,1.0,0.0,-1.25,78.0)"><text id="ProcessOnText1039" fill="#666666" font-size="13" x="34.0" y="13.325" font-family="Arial" font-weight="bold" font-style="italic" text-decoration="none" family="Arial" text-anchor="middle" size="13">征信局或</text><text id="ProcessOnText1040" fill="#666666" font-size="13" x="34.0" y="29.575" font-family="Arial" font-weight="bold" font-style="italic" text-decoration="none" family="Arial" text-anchor="middle" size="13">第三方数据</text></g></g><g id="ProcessOnG1041"><path id="ProcessOnPath1042" d="M158.0 278.5L128.0 278.5L128.0 370.5L144.3819660112501 370.5" stroke="#000000" stroke-width="1.0" stroke-dasharray="none" fill="none" marker-end="url(#ProcessOnMarker1043)"/></g><g id="ProcessOnG1045" transform="matrix(1.0,0.0,0.0,1.0,268.5,348.0)" opacity="1.0"><path id="ProcessOnPath1046" d="M0.0 22.5L32.5 0.0L65.0 22.5L32.5 45.0L0.0 22.5Z" stroke="#666666" stroke-width="2.0" stroke-dasharray="none" opacity="1.0" fill="#ffc000"/><g id="ProcessOnG1047" transform="matrix(1.0,0.0,0.0,1.0,10.0,7.5)"><text id="ProcessOnText1048" fill="#000000" font-size="12" x="21.5" y="12.3" font-family="Arial" font-weight="normal" font-style="normal" text-decoration="none" family="Arial" text-anchor="middle" size="12">欺诈风险</text><text id="ProcessOnText1049" fill="#000000" font-size="12" x="21.5" y="27.3" font-family="Arial" font-weight="normal" font-style="normal" text-decoration="none" family="Arial" text-anchor="middle" size="12">模型</text></g></g><g id="ProcessOnG1050"><path id="ProcessOnPath1051" d="M301.0 348.0L301.0 325.0L300.45 325.0L300.45 317.2360679774998" stroke="#323232" stroke-width="2.0" stroke-dasharray="none" fill="none" marker-end="url(#ProcessOnMarker1052)"/><g id="ProcessOnG1054" transform="matrix(1.0,0.0,0.0,1.0,301.0,324.8430339887499)"><path id="ProcessOnPath1055" d="M0 0H36.0V15.0H0Z" fill="#fff" transform="matrix(1.0,0.0,0.0,1.0,-18.0,0.0)"/><text id="ProcessOnText1056" fill="#000000" font-size="12" x="0.0" y="12.3" font-family="微软雅黑" font-weight="normal" font-style="normal" text-decoration="none" family="微软雅黑" text-anchor="middle" size="12">高风险</text></g></g><g id="ProcessOnG1057" transform="matrix(1.0,0.0,0.0,1.0,379.0,348.0)" opacity="1.0"><path id="ProcessOnPath1058" d="M0.0 22.5L32.5 0.0L65.0 22.5L32.5 45.0L0.0 22.5Z" stroke="#666666" stroke-width="2.0" stroke-dasharray="none" opacity="1.0" fill="#ffc000"/><g id="ProcessOnG1059" transform="matrix(1.0,0.0,0.0,1.0,10.0,7.5)"><text id="ProcessOnText1060" fill="#000000" font-size="12" x="21.5" y="12.3" font-family="Arial" font-weight="normal" font-style="normal" text-decoration="none" family="Arial" text-anchor="middle" size="12">信用风险</text><text id="ProcessOnText1061" fill="#000000" font-size="12" x="21.5" y="27.3" font-family="Arial" font-weight="normal" font-style="normal" text-decoration="none" family="Arial" text-anchor="middle" size="12">模型</text></g></g><g id="ProcessOnG1062"><path id="ProcessOnPath1063" d="M411.5 348.0L411.5 325.0L300.45 325.0L300.45 317.2360679774998" stroke="#323232" stroke-width="2.0" stroke-dasharray="none" fill="none" marker-end="url(#ProcessOnMarker1064)"/><g id="ProcessOnG1066" transform="matrix(1.0,0.0,0.0,1.0,363.5930339887499,317.5)"><path id="ProcessOnPath1067" d="M0 0H36.0V15.0H0Z" fill="#fff" transform="matrix(1.0,0.0,0.0,1.0,-18.0,0.0)"/><text id="ProcessOnText1068" fill="#000000" font-size="12" x="0.0" y="12.3" font-family="微软雅黑" font-weight="normal" font-style="normal" text-decoration="none" family="微软雅黑" text-anchor="middle" size="12">低评分</text></g></g><g id="ProcessOnG1069"><path id="ProcessOnPath1070" d="M333.5 370.5L356.25 370.5L356.25 370.5L363.7639320225002 370.5" stroke="#323232" stroke-width="2.0" stroke-dasharray="none" fill="none" marker-end="url(#ProcessOnMarker1071)"/><g id="ProcessOnG1073" transform="matrix(1.0,0.0,0.0,1.0,348.63196601125014,363.0)"><path id="ProcessOnPath1074" d="M0 0H36.0V15.0H0Z" fill="#fff" transform="matrix(1.0,0.0,0.0,1.0,-18.0,0.0)"/><text id="ProcessOnText1075" fill="#000000" font-size="12" x="0.0" y="12.3" font-family="微软雅黑" font-weight="normal" font-style="normal" text-decoration="none" family="微软雅黑" text-anchor="middle" size="12">低风险</text></g></g><g id="ProcessOnG1076" transform="matrix(1.0,0.0,0.0,1.0,489.5,348.0)" opacity="1.0"><path id="ProcessOnPath1077" d="M0.0 0.0L65.0 0.0L65.0 45.0L0.0 45.0Z" stroke="#666666" stroke-width="2.0" stroke-dasharray="none" opacity="1.0" fill="#aaff56"/><g id="ProcessOnG1078" transform="matrix(1.0,0.0,0.0,1.0,10.0,7.5)"><text id="ProcessOnText1079" fill="#000000" font-size="12" x="21.5" y="12.3" font-family="Arial" font-weight="normal" font-style="normal" text-decoration="none" family="Arial" text-anchor="middle" size="12">额度与利</text><text id="ProcessOnText1080" fill="#000000" font-size="12" x="21.5" y="27.3" font-family="Arial" font-weight="normal" font-style="normal" text-decoration="none" family="Arial" text-anchor="middle" size="12">率策略</text></g></g><g id="ProcessOnG1081"><path id="ProcessOnPath1082" d="M444.0 370.5L466.75 370.5L466.75 370.5L474.2639320225002 370.5" stroke="#323232" stroke-width="2.0" stroke-dasharray="none" fill="none" marker-end="url(#ProcessOnMarker1083)"/><g id="ProcessOnG1085" transform="matrix(1.0,0.0,0.0,1.0,459.13196601125014,363.0)"><path id="ProcessOnPath1086" d="M0 0H36.0V15.0H0Z" fill="#fff" transform="matrix(1.0,0.0,0.0,1.0,-18.0,0.0)"/><text id="ProcessOnText1087" fill="#000000" font-size="12" x="0.0" y="12.3" font-family="微软雅黑" font-weight="normal" font-style="normal" text-decoration="none" family="微软雅黑" text-anchor="middle" size="12">高评分</text></g></g><g id="ProcessOnG1088" transform="matrix(1.0,0.0,0.0,1.0,600.0,348.0)" opacity="1.0"><path id="ProcessOnPath1089" d="M0.0 0.0L65.0 0.0L65.0 45.0L0.0 45.0Z" stroke="#666666" stroke-width="2.0" stroke-dasharray="none" opacity="1.0" fill="#aaff56"/><g id="ProcessOnG1090" transform="matrix(1.0,0.0,0.0,1.0,10.0,7.5)"><text id="ProcessOnText1091" fill="#000000" font-size="12" x="21.5" y="12.3" font-family="Arial" font-weight="normal" font-style="normal" text-decoration="none" family="Arial" text-anchor="middle" size="12">存量客户</text><text id="ProcessOnText1092" fill="#000000" font-size="12" x="21.5" y="27.3" font-family="Arial" font-weight="normal" font-style="normal" text-decoration="none" family="Arial" text-anchor="middle" size="12">开展营销</text></g></g><g id="ProcessOnG1093"><path id="ProcessOnPath1094" d="M222.99999999999997 370.5L245.75 370.5L245.75 370.5L253.2639320225002 370.5" stroke="#323232" stroke-width="2.0" stroke-dasharray="none" fill="none" marker-end="url(#ProcessOnMarker1095)"/><g id="ProcessOnG1097" transform="matrix(1.0,0.0,0.0,1.0,238.13196601125009,363.0)"><path id="ProcessOnPath1098" d="M0 0H24.0V15.0H0Z" fill="#fff" transform="matrix(1.0,0.0,0.0,1.0,-12.0,0.0)"/><text id="ProcessOnText1099" fill="#000000" font-size="12" x="0.0" y="12.3" font-family="微软雅黑" font-weight="normal" font-style="normal" text-decoration="none" family="微软雅黑" text-anchor="middle" size="12">通过</text></g></g><g id="ProcessOnG1100"><path id="ProcessOnPath1101" d="M190.5 348.0L190.5 325.0L300.45 325.0L300.45 317.2360679774998" stroke="#323232" stroke-width="2.0" stroke-dasharray="none" fill="none" marker-end="url(#ProcessOnMarker1102)"/><g id="ProcessOnG1104" transform="matrix(1.0,0.0,0.0,1.0,237.8569660112501,317.5)"><path id="ProcessOnPath1105" d="M0 0H36.0V15.0H0Z" fill="#fff" transform="matrix(1.0,0.0,0.0,1.0,-18.0,0.0)"/><text id="ProcessOnText1106" fill="#000000" font-size="12" x="0.0" y="12.3" font-family="微软雅黑" font-weight="normal" font-style="normal" text-decoration="none" family="微软雅黑" text-anchor="middle" size="12">未通过</text></g></g><g id="ProcessOnG1107" transform="matrix(1.0,0.0,0.0,1.0,498.3499999999999,255.0)" opacity="1.0"><path id="ProcessOnPath1108" d="M0.0 23.5C0.0 -7.833333333333333 47.10000000000002 -7.833333333333333 47.10000000000002 23.5C47.10000000000002 54.833333333333336 0.0 54.833333333333336 0.0 23.5Z" stroke="#666666" stroke-width="2.0" stroke-dasharray="none" opacity="1.0" fill="#aaff56"/><g id="ProcessOnG1109" transform="matrix(1.0,0.0,0.0,1.0,10.0,8.5)"><text id="ProcessOnText1110" fill="#000000" font-size="12" x="12.550000000000011" y="12.3" font-family="Arial" font-weight="normal" font-style="normal" text-decoration="none" family="Arial" text-anchor="middle" size="12">授信</text><text id="ProcessOnText1111" fill="#000000" font-size="12" x="12.550000000000011" y="27.3" font-family="Arial" font-weight="normal" font-style="normal" text-decoration="none" family="Arial" text-anchor="middle" size="12">获批</text></g></g><g id="ProcessOnG1112"><path id="ProcessOnPath1113" d="M522.0 348.0L522.0 325.0L521.8999999999999 325.0L521.8999999999999 317.2360679774998" stroke="#323232" stroke-width="2.0" stroke-dasharray="none" fill="none" marker-end="url(#ProcessOnMarker1114)"/></g><g id="ProcessOnG1116" transform="matrix(-1.8369701987210297E-16,-1.0,1.0,-1.8369701987210297E-16,244.0,471.0)" opacity="1.0"><path id="ProcessOnPath1117" d="M4.5 0.0L25.0 0.0C31.363636363636363 0.0 31.363636363636363 30.0 25.0 30.0L4.5 30.0C-1.5 30.0 -1.5 0.0 4.5 0.0ZM25.0 0.0C18.75 0.0 18.75 30.0 25.0 30.0C18.75 30.0 18.75 0.0 25.0 0.0" stroke="#323232" stroke-width="2.0" stroke-dasharray="none" opacity="1.0" fill="#ffffff"/></g><g id="ProcessOnG1118" transform="matrix(-1.8369701987210297E-16,-1.0,1.0,-1.8369701987210297E-16,244.0,418.0)" opacity="1.0"><path id="ProcessOnPath1119" d="M4.5 0.0L25.0 0.0C31.363636363636363 0.0 31.363636363636363 30.0 25.0 30.0L4.5 30.0C-1.5 30.0 -1.5 0.0 4.5 0.0ZM25.0 0.0C18.75 0.0 18.75 30.0 25.0 30.0C18.75 30.0 18.75 0.0 25.0 0.0" stroke="#323232" stroke-width="2.0" stroke-dasharray="none" opacity="1.0" fill="#ffffff"/></g><g id="ProcessOnG1120"><path id="ProcessOnPath1121" d="M274.0 403.0L301.0 403.0L301.0 402.0" stroke="#323232" stroke-width="2.0" stroke-dasharray="none" fill="none" marker-end="url(#ProcessOnMarker1122)"/></g><g id="ProcessOnG1124"><path id="ProcessOnPath1125" d="M274.0 456.0L301.0 456.0L301.0 408.2360679774998" stroke="#323232" stroke-width="2.0" stroke-dasharray="none" fill="none" marker-end="url(#ProcessOnMarker1126)"/></g><g id="ProcessOnG1128" transform="matrix(-1.8369701987210297E-16,-1.0,1.0,-1.8369701987210297E-16,354.0,418.0)" opacity="1.0"><path id="ProcessOnPath1129" d="M4.5 0.0L25.0 0.0C31.363636363636363 0.0 31.363636363636363 30.0 25.0 30.0L4.5 30.0C-1.5 30.0 -1.5 0.0 4.5 0.0ZM25.0 0.0C18.75 0.0 18.75 30.0 25.0 30.0C18.75 30.0 18.75 0.0 25.0 0.0" stroke="#323232" stroke-width="2.0" stroke-dasharray="none" opacity="1.0" fill="#ffffff"/></g><g id="ProcessOnG1130" transform="matrix(-1.8369701987210297E-16,-1.0,1.0,-1.8369701987210297E-16,354.0,471.0)" opacity="1.0"><path id="ProcessOnPath1131" d="M4.5 0.0L25.0 0.0C31.363636363636363 0.0 31.363636363636363 30.0 25.0 30.0L4.5 30.0C-1.5 30.0 -1.5 0.0 4.5 0.0ZM25.0 0.0C18.75 0.0 18.75 30.0 25.0 30.0C18.75 30.0 18.75 0.0 25.0 0.0" stroke="#323232" stroke-width="2.0" stroke-dasharray="none" opacity="1.0" fill="#ffffff"/></g><g id="ProcessOnG1132"><path id="ProcessOnPath1133" d="M384.0 403.0L411.5 403.0L411.5 402.0" stroke="#323232" stroke-width="2.0" stroke-dasharray="none" fill="none" marker-end="url(#ProcessOnMarker1134)"/></g><g id="ProcessOnG1136"><path id="ProcessOnPath1137" d="M384.0 456.0L411.5 456.0L411.5 408.2360679774998" stroke="#323232" stroke-width="2.0" stroke-dasharray="none" fill="none" marker-end="url(#ProcessOnMarker1138)"/></g><g id="ProcessOnG1140" transform="matrix(1.0,0.0,0.0,1.0,599.9000000000001,256.0)" opacity="1.0"><path id="ProcessOnPath1141" d="M0.0 22.5L32.5 0.0L65.0 22.5L32.5 45.0L0.0 22.5Z" stroke="#666666" stroke-width="2.0" stroke-dasharray="none" opacity="1.0" fill="#ffc000"/><g id="ProcessOnG1142" transform="matrix(1.0,0.0,0.0,1.0,10.0,7.5)"><text id="ProcessOnText1143" fill="#000000" font-size="12" x="21.5" y="12.3" font-family="Arial" font-weight="normal" font-style="normal" text-decoration="none" family="Arial" text-anchor="middle" size="12">是否按时</text><text id="ProcessOnText1144" fill="#000000" font-size="12" x="21.5" y="27.3" font-family="Arial" font-weight="normal" font-style="normal" text-decoration="none" family="Arial" text-anchor="middle" size="12">还款</text></g></g><g id="ProcessOnG1145"><path id="ProcessOnPath1146" d="M632.4000000000001 301.0L632.4000000000001 324.5L632.5 324.5L632.5 332.7639320225002" stroke="#323232" stroke-width="2.0" stroke-dasharray="none" fill="none" marker-end="url(#ProcessOnMarker1147)"/><g id="ProcessOnG1149" transform="matrix(1.0,0.0,0.0,1.0,632.4000000000001,309.4319660112501)"><path id="ProcessOnPath1150" d="M0 0H12.0V15.0H0Z" fill="#fff" transform="matrix(1.0,0.0,0.0,1.0,-6.0,0.0)"/><text id="ProcessOnText1151" fill="#000000" font-size="12" x="0.0" y="12.3" font-family="微软雅黑" font-weight="normal" font-style="normal" text-decoration="none" family="微软雅黑" text-anchor="middle" size="12">是</text></g></g><g id="ProcessOnG1152"><path id="ProcessOnPath1153" d="M545.4499999999999 278.5L572.675 278.5L572.675 278.5L584.6639320225003 278.5" stroke="#323232" stroke-width="2.0" stroke-dasharray="none" fill="none" marker-end="url(#ProcessOnMarker1154)"/></g><g id="ProcessOnG1156" transform="matrix(1.0,0.0,0.0,1.0,710.5,348.0)" opacity="1.0"><path id="ProcessOnPath1157" d="M0.0 22.5L32.5 0.0L65.0 22.5L32.5 45.0L0.0 22.5Z" stroke="#666666" stroke-width="2.0" stroke-dasharray="none" opacity="1.0" fill="#ffc000"/><g id="ProcessOnG1158" transform="matrix(1.0,0.0,0.0,1.0,10.0,15.0)"><text id="ProcessOnText1159" fill="#000000" font-size="12" x="21.5" y="12.3" font-family="Arial" font-weight="normal" font-style="normal" text-decoration="none" family="Arial" text-anchor="middle" size="12">催收</text></g></g><g id="ProcessOnG1160"><path id="ProcessOnPath1161" d="M664.9000000000001 278.5L743.0 278.5L743.0 332.7639320225002" stroke="#323232" stroke-width="2.0" stroke-dasharray="none" fill="none" marker-end="url(#ProcessOnMarker1162)"/><g id="ProcessOnG1164" transform="matrix(1.0,0.0,0.0,1.0,731.0819660112502,271.0)"><path id="ProcessOnPath1165" d="M0 0H12.0V15.0H0Z" fill="#fff" transform="matrix(1.0,0.0,0.0,1.0,-6.0,0.0)"/><text id="ProcessOnText1166" fill="#000000" font-size="12" x="0.0" y="12.3" font-family="微软雅黑" font-weight="normal" font-style="normal" text-decoration="none" family="微软雅黑" text-anchor="middle" size="12">否</text></g></g><g id="ProcessOnG1167"><path id="ProcessOnPath1168" d="M710.5 370.5L687.75 370.5L687.75 370.5L680.2360679774998 370.5" stroke="#323232" stroke-width="2.0" stroke-dasharray="none" fill="none" marker-end="url(#ProcessOnMarker1169)"/><g id="ProcessOnG1171" transform="matrix(1.0,0.0,0.0,1.0,695.3680339887499,363.0)"><path id="ProcessOnPath1172" d="M0 0H24.0V15.0H0Z" fill="#fff" transform="matrix(1.0,0.0,0.0,1.0,-12.0,0.0)"/><text id="ProcessOnText1173" fill="#000000" font-size="12" x="0.0" y="12.3" font-family="微软雅黑" font-weight="normal" font-style="normal" text-decoration="none" family="微软雅黑" text-anchor="middle" size="12">还款</text></g></g><g id="ProcessOnG1174" transform="matrix(1.0,0.0,0.0,1.0,821.0,348.0)" opacity="1.0"><path id="ProcessOnPath1175" d="M0.0 0.0L65.0 0.0L65.0 45.0L0.0 45.0Z" stroke="#666666" stroke-width="2.0" stroke-dasharray="none" opacity="1.0" fill="#ff6666"/><g id="ProcessOnG1176" transform="matrix(1.0,0.0,0.0,1.0,10.0,7.5)"><text id="ProcessOnText1177" fill="#000000" font-size="12" x="21.5" y="12.3" font-family="Arial" font-weight="normal" font-style="normal" text-decoration="none" family="Arial" text-anchor="middle" size="12">核销/资产</text><text id="ProcessOnText1178" fill="#000000" font-size="12" x="21.5" y="27.3" font-family="Arial" font-weight="normal" font-style="normal" text-decoration="none" family="Arial" text-anchor="middle" size="12">出售</text></g></g><g id="ProcessOnG1179"><path id="ProcessOnPath1180" d="M775.5 370.5L798.25 370.5L798.25 370.5L805.7639320225002 370.5" stroke="#323232" stroke-width="2.0" stroke-dasharray="none" fill="none" marker-end="url(#ProcessOnMarker1181)"/><g id="ProcessOnG1183" transform="matrix(1.0,0.0,0.0,1.0,790.6319660112501,363.0)"><path id="ProcessOnPath1184" d="M0 0H36.0V15.0H0Z" fill="#fff" transform="matrix(1.0,0.0,0.0,1.0,-18.0,0.0)"/><text id="ProcessOnText1185" fill="#000000" font-size="12" x="0.0" y="12.3" font-family="微软雅黑" font-weight="normal" font-style="normal" text-decoration="none" family="微软雅黑" text-anchor="middle" size="12">未还款</text></g></g></g></g></svg>